<svg version="1.1" xmlns="http://www.w3.org/2000/svg" width="111px" height="60px"><path fill="#E53935" d="M0.833984375,24.927734375q0-0.21875,0.1572265625-0.3623046875t0.369140625-0.2255859375t0.46484375-0.109375t0.4443359375-0.02734375q0.396484375,0,0.8408203125,0.109375t0.6630859375,0.478515625q0.396484375,0.669921875,0.5810546875,1.5927734375t0.3486328125,1.7705078125q0.24609375,1.17578125,0.62890625,2.4609375t0.7998046875,2.6181640625t0.8544921875,2.6181640625t0.765625,2.40625q0.396484375-1.654296875,0.7314453125-3.390625t0.642578125-3.47265625t0.642578125-3.47265625t0.7314453125-3.404296875q0.08203125-0.396484375,0.123046875-0.998046875t0.1708984375-1.162109375t0.3759765625-0.9638671875t0.751953125-0.4033203125q0.533203125,0,0.7177734375,0.2939453125t0.1845703125,0.8544921875q-0.13671875,1.544921875-0.4443359375,3.0625t-0.5673828125,3.03515625q-0.369140625,1.873046875-0.7998046875,3.7529296875t-0.806640625,3.7666015625t-0.642578125,3.7802734375t-0.3212890625,3.7939453125q0.02734375,0.08203125,0.08203125,0.19140625t0.0546875,0.1640625q0,0.1640625-0.150390625,0.3076171875t-0.3759765625,0.24609375t-0.4921875,0.1572265625t-0.4990234375,0.0546875q-0.21875,0-0.4990234375-0.02734375t-0.560546875-0.1025390625t-0.4921875-0.1982421875t-0.2666015625-0.314453125q-0.21875-0.642578125-0.4033203125-1.2509765625t-0.3486328125-1.2509765625q-0.779296875-2.802734375-1.6337890625-5.5029296875t-1.5791015625-5.4892578125q-0.341796875-1.2578125-0.5126953125-2.4677734375t-0.5537109375-2.3857421875q0.0546875,0.109375,0.0546875,0.177734375q-0.0546875-0.19140625-0.109375-0.3623046875t-0.123046875-0.3759765625q0,0.0546875,0.013671875,0.068359375t0.013671875,0.041015625q0-0.02734375-0.013671875-0.041015625t-0.013671875-0.041015625z M15.34900390625,39.16015625q0-0.779296875,0.1982421875-1.6064453125t0.62890625-1.490234375t1.0869140625-1.080078125t1.5859375-0.4169921875q0.697265625,0,1.4697265625,0.2392578125t1.4150390625,0.68359375t1.0458984375,1.0869140625t0.4033203125,1.435546875q0,0.95703125-0.3486328125,1.818359375t-0.9775390625,1.5380859375t-1.4697265625,1.06640625t-1.8251953125,0.3896484375q-0.806640625,0-1.408203125-0.2939453125t-1.0048828125-0.7861328125t-0.6015625-1.162109375t-0.1982421875-1.421875z M17.35876953125,39.1328125q0,0.24609375,0.0751953125,0.724609375t0.2255859375,0.9365234375t0.3896484375,0.79296875t0.5810546875,0.3076171875q0.724609375-0.08203125,1.1962890625-0.4716796875t0.765625-0.9501953125t0.41015625-1.216796875t0.1162109375-1.244140625q0-0.751953125-0.2939453125-1.2578125t-0.9638671875-0.8203125q0,0.02734375,0.02734375,0.02734375t0.02734375-0.02734375l-0.341796875-0.08203125q-0.13671875-0.0546875-0.3349609375-0.123046875t-0.3896484375-0.30078125q-0.533203125,0.19140625-0.8271484375,0.4921875t-0.4443359375,0.7314453125t-0.1845703125,1.0322265625t-0.0341796875,1.44921875z M25.7077734375,38.421875q0-0.751953125,0.1435546875-1.6064453125t0.4921875-1.5654296875t0.9638671875-1.17578125t1.572265625-0.46484375q0.642578125,0,1.244140625,0.2119140625t1.134765625,0.5810546875q0.1640625-0.2734375,0.51953125-0.3349609375t0.62890625-0.0615234375q0.109375,0,0.3076171875,0.013671875t0.3896484375,0.08203125t0.3349609375,0.1640625t0.1708984375,0.2734375q0.109375,0.95703125,0.150390625,1.9072265625t0.123046875,1.8935546875q0.13671875,1.763671875,0.423828125,3.486328125t0.287109375,3.486328125q0,0.833984375-0.0751953125,1.8046875t-0.396484375,1.7978515625t-0.9365234375,1.3740234375t-1.708984375,0.546875q-0.984375,0-1.5107421875-0.3486328125t-0.9501953125-1.1689453125q0.02734375-0.2734375,0.3486328125-0.3623046875t0.5537109375-0.0888671875q0.21875,0,0.4443359375,0.041015625t0.3623046875,0.13671875l0.341796875,0.21875q0.505859375-1.0390625,0.615234375-2.26953125t0.109375-2.37890625q0-0.95703125-0.095703125-1.8935546875t-0.19140625-1.8798828125q-0.95703125,1.736328125-2.912109375,1.736328125q-0.90234375,0-1.4697265625-0.3828125t-0.875-0.970703125t-0.423828125-1.326171875t-0.1162109375-1.4765625z M27.3894140625,38.544921875q0,0.341796875,0.02734375,0.8818359375t0.1435546875,1.0595703125t0.3349609375,0.8955078125t0.615234375,0.3759765625q0.751953125,0,1.189453125-0.587890625t0.6904296875-1.4013671875t0.4033203125-1.681640625t0.3828125-1.4287109375q-0.02734375-0.19140625-0.02734375-0.3759765625l0-0.3759765625q-0.314453125-0.587890625-0.916015625-1.0185546875t-1.244140625-0.5810546875q-0.08203125-0.013671875-0.150390625-0.013671875q-0.3828125,0-0.62890625,0.451171875q-0.314453125,0.546875-0.4921875,1.3056640625t-0.2529296875,1.4970703125t-0.0751953125,0.998046875z M36.83216796875,37.697265625q0-0.2734375,0.0615234375-0.724609375t0.1435546875-0.8955078125t0.19140625-0.8271484375t0.259765625-0.4921875q0.109375-0.109375,0.3759765625-0.21875t0.560546875-0.1572265625t0.546875,0.041015625t0.3076171875,0.3623046875q-0.19140625,0.24609375-0.3486328125,0.8408203125t-0.2392578125,1.3193359375q-0.068359375,0.615234375-0.068359375,1.271484375l0,0.232421875q0.013671875,0.765625,0.13671875,1.408203125t0.3759765625,1.0595703125t0.7041015625,0.4169921875q0.95703125,0,1.75-0.8818359375t1.408203125-2.1533203125t1.080078125-2.7001953125t0.79296875-2.4951171875q0.08203125-0.314453125,0.3896484375-0.423828125t0.6630859375-0.0751953125t0.6357421875,0.1708984375t0.3349609375,0.328125q-0.2734375,2.296875-0.4306640625,4.59375t-0.1572265625,4.62109375q0,0.451171875,0.041015625,0.8271484375t-0.041015625,0.642578125t-0.3623046875,0.423828125t-0.8955078125,0.1572265625q-0.13671875,0-0.3486328125-0.02734375t-0.4375-0.0888671875t-0.3828125-0.1845703125t-0.1572265625-0.287109375q0-1.01171875,0.0751953125-2.078125t0.2119140625-2.064453125q-0.369140625,0.533203125-0.8134765625,1.0595703125t-0.9775390625,0.9501953125t-1.1484375,0.6767578125t-1.326171875,0.2529296875q-1.01171875,0-1.5927734375-0.478515625t-0.875-1.1962890625t-0.369140625-1.5654296875t-0.0751953125-1.640625z M49.692890625,39.4609375q0-0.95703125,0.2119140625-2.255859375t0.7177734375-2.4609375t1.3330078125-1.9755859375t2.0849609375-0.8134765625q1.17578125,0,1.763671875,0.6767578125t0.587890625,1.8251953125q0,0.751953125-0.2802734375,1.6474609375t-0.7998046875,1.6953125t-1.23046875,1.3330078125t-1.5859375,0.533203125l-0.35546875-0.02734375q0,0.369140625,0.109375,0.9912109375t0.3212890625,1.2373046875t0.546875,1.080078125t0.8134765625,0.46484375q0.697265625,0,1.33984375-0.560546875t1.216796875-1.244140625t1.06640625-1.244140625t0.90234375-0.560546875q0.21875,0,0.451171875,0.068359375t0.259765625,0.3828125q0,0.19140625-0.1025390625,0.314453125t-0.1845703125,0.2734375q-0.423828125,0.724609375-0.9228515625,1.380859375t-1.1279296875,1.189453125t-1.3740234375,0.8408203125t-1.6474609375,0.3076171875q-1.17578125,0-1.955078125-0.4169921875t-1.2578125-1.12109375t-0.6904296875-1.626953125t-0.2119140625-1.9345703125z M52.14015625,38.421875l0.3828125,0.341796875q0.2734375,0.24609375,0.546875,0.109375t0.4921875-0.4990234375t0.4033203125-0.8955078125t0.328125-1.09375t0.2119140625-1.09375t0.068359375-0.888671875l0-0.46484375t-0.041015625-0.4921875t-0.1435546875-0.3896484375t-0.3212890625-0.1982421875q-0.068359375-0.013671875-0.123046875-0.013671875q-0.46484375,0-0.79296875,0.587890625q-0.35546875,0.65625-0.57421875,1.5927734375t-0.314453125,1.9208984375t-0.123046875,1.4765625z"/><path fill="#E53935" d="M60.833984375,26.103515625q0-0.1640625,0.1572265625-0.24609375t0.341796875-0.123046875t0.3349609375-0.041015625l0.150390625,0q0.478515625,0,0.6904296875,0.21875t0.5126953125,0.560546875q2.05078125,2.966796875,3.759765625,6.1044921875t3.294921875,6.3505859375q0.13671875-3.74609375,0.2802734375-7.5400390625t0.3623046875-7.5263671875q0-0.1640625,0.1572265625-0.2734375t0.35546875-0.1640625t0.4033203125-0.068359375t0.314453125-0.013671875q0.1640625,0,0.3623046875,0.013671875t0.396484375,0.08203125t0.328125,0.1640625t0.1298828125,0.259765625q0.0546875,0.587890625,0.0615234375,1.1826171875t0.0068359375,1.1826171875q0,4.40234375-0.19140625,8.626953125t-0.19140625,8.53125l0,0.984375q0,0.0546875-0.0546875,0.1640625q0.02734375,0.109375,0.08203125,0.2392578125t0.0546875,0.1845703125q0,0.21875-0.2255859375,0.328125t-0.4921875,0.1708984375t-0.4716796875,0.0615234375t-0.150390625,0q-0.697265625,0-1.17578125-0.3828125t-0.478515625-0.916015625q-1.01171875-2.26953125-2.0166015625-4.5048828125t-2.0986328125-4.4501953125q-0.697265625-1.39453125-1.4013671875-2.7958984375t-1.5107421875-2.7138671875q0.02734375,0.02734375,0.02734375,0.08203125q0.13671875,1.3671875,0.2939453125,2.7275390625t0.2392578125,2.7275390625q0.0546875,1.17578125,0.123046875,2.37890625t0.21875,2.37890625q0,0.451171875-0.2802734375,0.57421875t-0.6494140625,0.123046875q-0.314453125,0-0.5947265625-0.08203125t-0.3349609375-0.41015625q0-1.2578125-0.095703125-2.6728515625t-0.177734375-2.8505859375q-0.13671875-1.900390625-0.3623046875-3.8623046875t-0.2255859375-3.8349609375q0-0.08203125,0.013671875-0.1708984375t0.013671875-0.1982421875q-0.08203125-0.13671875-0.1845703125-0.287109375t-0.1025390625-0.2734375z M76.01892578125,39.4609375q0-0.95703125,0.2119140625-2.255859375t0.7177734375-2.4609375t1.3330078125-1.9755859375t2.0849609375-0.8134765625q1.17578125,0,1.763671875,0.6767578125t0.587890625,1.8251953125q0,0.751953125-0.2802734375,1.6474609375t-0.7998046875,1.6953125t-1.23046875,1.3330078125t-1.5859375,0.533203125l-0.35546875-0.02734375q0,0.369140625,0.109375,0.9912109375t0.3212890625,1.2373046875t0.546875,1.080078125t0.8134765625,0.46484375q0.697265625,0,1.33984375-0.560546875t1.216796875-1.244140625t1.06640625-1.244140625t0.90234375-0.560546875q0.21875,0,0.451171875,0.068359375t0.259765625,0.3828125q0,0.19140625-0.1025390625,0.314453125t-0.1845703125,0.2734375q-0.423828125,0.724609375-0.9228515625,1.380859375t-1.1279296875,1.189453125t-1.3740234375,0.8408203125t-1.6474609375,0.3076171875q-1.17578125,0-1.955078125-0.4169921875t-1.2578125-1.12109375t-0.6904296875-1.626953125t-0.2119140625-1.9345703125z M78.46619140625,38.421875l0.3828125,0.341796875q0.2734375,0.24609375,0.546875,0.109375t0.4921875-0.4990234375t0.4033203125-0.8955078125t0.328125-1.09375t0.2119140625-1.09375t0.068359375-0.888671875l0-0.46484375t-0.041015625-0.4921875t-0.1435546875-0.3896484375t-0.3212890625-0.1982421875q-0.068359375-0.013671875-0.123046875-0.013671875q-0.46484375,0-0.79296875,0.587890625q-0.35546875,0.65625-0.57421875,1.5927734375t-0.314453125,1.9208984375t-0.123046875,1.4765625z M87.4441015625,35.373046875q0-0.560546875,0.328125-0.9638671875t0.7998046875-0.65625t1.0322265625-0.3759765625t1.0390625-0.123046875q0.369140625,0,0.984375,0.109375t1.203125,0.328125t1.0185546875,0.57421875t0.4306640625,0.833984375q0,0.21875-0.1640625,0.3896484375t-0.341796875,0.1708984375q-0.369140625,0-0.669921875-0.2392578125t-0.6220703125-0.505859375t-0.7041015625-0.505859375t-0.861328125-0.2392578125t-0.8681640625,0.3076171875t-0.3896484375,0.8134765625q0,0.833984375,0.587890625,1.6337890625t1.2919921875,1.681640625t1.2919921875,1.8525390625t0.587890625,2.146484375q0,0.505859375-0.2119140625,0.8544921875t-0.560546875,0.5673828125t-0.7861328125,0.3349609375t-0.84765625,0.1162109375q-0.451171875,0-1.052734375-0.2119140625t-1.134765625-0.560546875t-0.8955078125-0.8134765625t-0.3623046875-0.970703125q0-0.24609375,0.3486328125-0.314453125t0.5126953125-0.068359375q0.08203125,0,0.2529296875,0.0546875t0.3349609375,0.123046875t0.2939453125,0.150390625t0.1025390625,0.177734375q0.13671875,0.1640625,0.4169921875,0.4853515625t0.560546875,0.51953125t0.4921875,0.1435546875t0.2119140625-0.615234375q0-1.06640625-0.57421875-1.9619140625t-1.2509765625-1.75t-1.2509765625-1.6953125t-0.57421875-1.7978515625z M96.51771484375,30.21875q0-0.19140625,0.41015625-0.328125t0.9296875-0.2255859375t1.0048828125-0.1298828125t0.6630859375-0.068359375q0-0.369140625,0.02734375-0.7451171875t0.150390625-0.669921875t0.3896484375-0.4716796875t0.7451171875-0.177734375q0.396484375,0,0.6015625,0.095703125t0.4375,0.396484375q0.0546875,0.1640625,0.0546875,0.314453125l0,0.4580078125t-0.02734375,0.4716796875q0.505859375-0.0546875,1.0048828125-0.1298828125t1.0048828125-0.0751953125q0.369140625,0,0.505859375,0.013671875t0.2734375,0.328125q0.109375,0.314453125-0.2666015625,0.478515625t-0.90234375,0.24609375t-1.0458984375,0.123046875t-0.62890625,0.041015625q-0.1640625,2.3515625-0.3349609375,4.662109375t-0.1708984375,4.689453125q0,1.06640625,0.068359375,2.201171875t0.3828125,2.146484375q0.08203125,0.314453125,0.2734375,0.587890625t0.19140625,0.587890625q0,0.19140625-0.150390625,0.30078125t-0.3623046875,0.1845703125t-0.423828125,0.0888671875t-0.3486328125,0.013671875q-0.861328125,0-1.3125-0.642578125t-0.6494140625-1.5380859375t-0.2119140625-1.8388671875t-0.013671875-1.53125q0-1.203125,0.0478515625-2.4609375t0.1162109375-2.48828125t0.19140625-2.40625t0.287109375-2.1875q-0.478515625,0.0546875-0.9365234375,0.123046875t-0.9365234375,0.068359375q-0.109375,0-0.2939453125-0.013671875t-0.3486328125-0.068359375t-0.2802734375-0.150390625t-0.1162109375-0.2734375z"/></svg>
